<?xml version="1.0" encoding="UTF-8"?>
<svg id="Layer_1" xmlns="http://www.w3.org/2000/svg" version="1.1" viewBox="0 0 584 321.33">
  <!-- Generator: Adobe Illustrator 29.7.1, SVG Export Plug-In . SVG Version: 2.1.1 Build 8)  -->
  <defs>
    <style>
      .st0 {
        fill: #fff;
      }

      .st1 {
        fill: #f7ec13;
      }

      .st2 {
        opacity: .5;
      }

      .st2, .st3 {
        fill: #d7b928;
      }

      .st4 {
        fill: #3c3a3f;
      }
    </style>
  </defs>
  <path class="st4" d="M221.33,171.56l-42.22,10.22v10.24l46-3.12s-6.22-1.78-7.11-10.89c0,0,.89-5.33,3.33-6.44Z"/>
  <path class="st0" d="M156.15,178.37c.44.15,6.3-55.04-22.59-75.48,0,0-25.11-21.78-60.22-11.11.44.22-31.11,11.33-33.33,54.44.22-.44,2.96,43.85,2.96,43.85,0,0-32.74,33.48-26.22,46.67.15,0,4.15,9.48,26.22-14.67-.15.59-.59,22.96-5.04,50.07,0,0-2.67,8.89,7.11,13.04.15-.15,10.22,2.96,13.78-7.26.15.3,1.33-13.33,12.74-12.74.15,0,10.22.44,9.63,15.11,0,0-3.26,16,8,16.59,0,.15,8.74,2.07,12.59-8.74-.15.44,1.04-14.07,12.44-14.07.15,0,11.56.44,8.89,17.93-.15.74-2.22,16.89,7.7,17.63.74.3,11.11,2.52,13.63-14.22.15.15,11.26-43.11,12-98.22,0,0,25.78-1.19,28.59-11.41.59-.15.15-9.04-28.89-7.41ZM100.22,169.78c-5.4,0-9.78-5.97-9.78-13.33s4.38-13.33,9.78-13.33,9.78,5.97,9.78,13.33-4.38,13.33-9.78,13.33ZM132.42,159.76c-5.4,0-9.78-5.97-9.78-13.33s4.38-13.33,9.78-13.33,9.78,5.97,9.78,13.33-4.38,13.33-9.78,13.33Z"/>
  <ellipse class="st1" cx="224.63" cy="179.47" rx="6.34" ry="9.69"/>
  <g>
    <path class="st3" d="M486.67,166.5c0,1.29.87,1.81,1.99,1.81s2-.53,3.1-1.5v-3.15c-3.8.46-5.08,1.39-5.08,2.84Z"/>
    <path class="st3" d="M435.83,166.5c0,1.29.87,1.81,1.99,1.81s2-.53,3.1-1.5v-3.15c-3.8.46-5.08,1.39-5.08,2.84Z"/>
    <path class="st3" d="M415.81,148.18c1.09,0,2-.53,3.1-1.5v-3.15c-3.8.46-5.08,1.39-5.08,2.84,0,1.29.87,1.81,1.99,1.81Z"/>
    <path class="st3" d="M444.08,145.82c0-1.42-.92-2.04-2.83-2.04h-1.93v4.14h1.93c1.91,0,2.83-.65,2.83-2.09Z"/>
    <path class="st3" d="M458.32,186.63c0,1.29.87,1.81,1.99,1.81s2-.53,3.1-1.5v-3.15c-3.8.46-5.08,1.39-5.08,2.84Z"/>
    <path class="st3" d="M488.39,179.94h-3.61l-.44,3.83c-.25,2.23-.69,3.57-1.23,4.38h5.29v-8.21Z"/>
    <path class="st3" d="M498.61,179.62c-1.59,0-3.02,1.28-3.25,3.51h6.04c0-2.27-1.02-3.51-2.79-3.51Z"/>
    <path class="st3" d="M427.03,159.57c-.96,0-1.93.53-3.03,1.55v5.94c1.03.86,2.01,1.18,2.76,1.18,1.88,0,3.26-1.69,3.26-4.49,0-2.5-.85-4.18-2.99-4.18Z"/>
    <path class="st3" d="M469.25,6.88c-58.57,0-106.06,47.48-106.06,106.06s47.48,106.06,106.06,106.06,106.06-47.48,106.06-106.06S527.83,6.88,469.25,6.88ZM487.38,148.27c0,.85-.63,1.45-1.39,1.45s-1.39-.6-1.39-1.45.63-1.48,1.39-1.48,1.39.6,1.39,1.48ZM444.12,68.5c0-6.73,1.82-11.95,5.46-15.67,3.64-3.72,8.94-5.58,15.91-5.58s12.31,1.85,15.93,5.56,5.43,8.94,5.43,15.7v34.02c0,6.73-1.82,11.95-5.46,15.67-3.64,3.72-8.94,5.58-15.91,5.58s-12.31-1.87-15.93-5.61c-3.62-3.74-5.43-8.96-5.43-15.65v-34.02ZM481.63,148.27c0,.85-.63,1.45-1.39,1.45s-1.39-.6-1.39-1.45.63-1.48,1.39-1.48,1.39.6,1.39,1.48ZM475.87,148.27c0,.85-.63,1.45-1.39,1.45s-1.39-.6-1.39-1.45.63-1.48,1.39-1.48,1.39.6,1.39,1.48ZM473.58,175.22c1.54,0,2.03-1.11,2.07-2.44h1.58c-.09,1.81-1.03,3.56-3.65,3.56s-3.56-1.75-3.65-3.56h1.58c.05,1.33.53,2.44,2.07,2.44ZM467.93,140.55c-.42.7-1.08,1.74-1.5,2.42l-4.29,6.47h-1.78v-11.33h1.87v4.71c0,1.2-.1,2.73-.18,4.18h.08c.42-.7,1.09-1.73,1.5-2.42l4.29-6.47h1.78v11.33h-1.87v-4.71c0-1.2.1-2.72.19-4.18h-.09ZM437.4,138.11h1.92v4.18h2.13c2.7,0,4.51,1.07,4.51,3.55s-1.81,3.61-4.51,3.61h-4.05v-11.33ZM431.71,138.11h1.92v11.33h-1.92v-5.03h-5.45v5.03h-1.92v-11.33h1.92v4.6h5.45v-4.6ZM383.12,102.42l25.12-54.2h10.81l-24.5,53.58h20.85v-22.8h10.24v22.8h5.61v9.73h-5.61v11.53h-10.24v-11.53h-32.27v-9.11ZM416.56,139.41c-1.31,0-2.49.62-3.38,1.21l-.75-1.31c1.04-.68,2.63-1.48,4.45-1.48,2.77,0,3.94,1.84,3.94,4.66v6.95h-1.58l-.16-1.35h-.06c-1.08.9-2.34,1.63-3.75,1.63-1.9,0-3.32-1.18-3.32-3.22,0-2.47,2.13-3.7,6.96-4.23,0-1.46-.49-2.86-2.34-2.86ZM391.62,149.72c-2.78,0-5.25-2.18-5.25-5.93s2.47-5.96,5.25-5.96,5.25,2.18,5.25,5.96-2.47,5.93-5.25,5.93ZM399.8,138.11h9.07v11.33h-1.92v-9.77h-5.23v9.77h-1.92v-11.33ZM405.53,169.85c-3.02,0-5.32-2.18-5.32-5.93s2.55-5.96,5.45-5.96c1.49,0,2.52.61,3.32,1.33l-.98,1.27c-.66-.6-1.36-1-2.25-1-2.05,0-3.56,1.77-3.56,4.36s1.42,4.33,3.51,4.33c1.04,0,1.95-.5,2.66-1.13l.83,1.29c-1.02.91-2.3,1.44-3.66,1.44ZM410.1,159.8v-1.56h9.51v1.56h-3.79v9.77h-1.92v-9.77h-3.79ZM424.19,189.71h-1.92v-5.03h-5.45v5.03h-1.92v-11.33h1.92v4.6h5.45v-4.6h1.92v11.33ZM423.95,168.54l.05,1.98v3.84h-1.92v-16.11h1.58l.16,1.31h.06c1.02-.85,2.3-1.59,3.61-1.59,2.93,0,4.49,2.27,4.49,5.77,0,3.86-2.32,6.12-4.91,6.12-1.04,0-2.1-.48-3.14-1.31ZM436.65,184.5h-7.63c.14,2.4,1.61,3.96,3.77,3.96,1.09,0,1.98-.35,2.82-.91l.69,1.26c-.99.65-2.2,1.18-3.74,1.18-3.02,0-5.43-2.21-5.43-5.93s2.49-5.96,5.09-5.96c2.89,0,4.52,2.08,4.52,5.32,0,.4-.03.81-.09,1.09ZM442.83,169.57h-1.58l-.16-1.35h-.06c-1.08.9-2.34,1.63-3.75,1.63-1.9,0-3.32-1.18-3.32-3.22,0-2.47,2.13-3.7,6.96-4.23,0-1.46-.49-2.86-2.34-2.86-1.31,0-2.49.62-3.38,1.21l-.75-1.31c1.04-.68,2.63-1.48,4.45-1.48,2.77,0,3.94,1.84,3.94,4.66v6.95ZM453.37,189.71h-1.92v-5.03h-5.45v5.03h-1.92v-11.33h1.92v4.6h5.45v-4.6h1.92v11.33ZM455.64,169.57h-1.92v-5.03h-5.45v5.03h-1.92v-11.33h1.92v4.6h5.45v-4.6h1.92v11.33ZM452.94,144.33h-2.22v5.11h-1.92v-11.33h1.92v4.66h2.19l1.12-2.52c.87-1.99,1.74-2.42,2.97-2.42.24,0,.49.05.67.13l-.34,1.8c-.14-.05-.21-.06-.38-.06-.59,0-1.06.21-1.63,1.56l-.96,2.23,3.85,5.97h-2.11l-3.15-5.11ZM465.32,189.71h-1.58l-.16-1.35h-.06c-1.08.9-2.34,1.63-3.75,1.63-1.9,0-3.32-1.18-3.32-3.22,0-2.47,2.13-3.7,6.96-4.23,0-1.46-.49-2.86-2.34-2.86-1.31,0-2.49.62-3.38,1.21l-.75-1.31c1.04-.68,2.63-1.48,4.45-1.48,2.77,0,3.94,1.84,3.94,4.66v6.95ZM468.75,169.57h-1.87v-4.71c0-1.2.1-2.72.19-4.18h-.09c-.42.7-1.08,1.74-1.5,2.42l-4.29,6.47h-1.78v-11.33h1.87v4.71c0,1.2-.1,2.73-.18,4.18h.08c.42-.7,1.09-1.73,1.5-2.42l4.29-6.47h1.78v11.33ZM478.19,189.71h-1.87v-4.71c0-1.2.1-2.72.19-4.18h-.09c-.42.7-1.08,1.74-1.5,2.42l-4.29,6.47h-1.78v-11.33h1.87v4.71c0,1.2-.1,2.73-.18,4.18h.08c.42-.7,1.09-1.73,1.5-2.42l4.29-6.47h1.78v11.33ZM472.53,169.57v-11.33h1.92v9.77h5.08v-9.77h1.92v9.77h1.65v1.21l-.2,4.36h-1.65v-4.01h-8.71ZM491.95,189.36l-.2,4.36h-1.65v-4.01h-7.74v4.01h-1.65l-.2-4.36v-1.21h.56c.63-.34,1.14-1.1,1.58-4.75l.6-5.02h7.05v9.77h1.65v1.21ZM491.92,168.22h-.06c-1.08.9-2.34,1.63-3.75,1.63-1.9,0-3.32-1.18-3.32-3.22,0-2.47,2.13-3.7,6.96-4.23,0-1.46-.49-2.86-2.34-2.86-1.31,0-2.49.62-3.38,1.21l-.75-1.31c1.04-.68,2.63-1.48,4.45-1.48,2.77,0,3.94,1.84,3.94,4.66v6.95h-1.58l-.16-1.35ZM503.01,184.5h-7.63c.14,2.4,1.61,3.96,3.77,3.96,1.09,0,1.98-.35,2.82-.91l.69,1.26c-.99.65-2.2,1.18-3.74,1.18-3.02,0-5.43-2.21-5.43-5.93s2.49-5.96,5.09-5.96c2.89,0,4.52,2.08,4.52,5.32,0,.4-.03.81-.09,1.09ZM515.13,189.71h-1.92v-5.03h-5.45v5.03h-1.92v-11.33h1.92v4.6h5.45v-4.6h1.92v11.33ZM527.07,189.71h-1.58l-.16-1.35h-.06c-1.08.9-2.34,1.63-3.75,1.63-1.9,0-3.32-1.18-3.32-3.22,0-2.47,2.13-3.7,6.96-4.23,0-1.46-.49-2.86-2.34-2.86-1.31,0-2.49.62-3.38,1.21l-.75-1.31c1.04-.68,2.63-1.48,4.45-1.48,2.77,0,3.94,1.84,3.94,4.66v6.95ZM543.77,111.53v11.53h-10.24v-11.53h-32.27v-9.11l25.12-54.2h10.81l-24.5,53.58h20.85v-22.8h10.24v22.8h5.61v9.73h-5.61Z"/>
    <path class="st3" d="M432.25,179.62c-1.59,0-3.02,1.28-3.25,3.51h6.04c0-2.27-1.02-3.51-2.79-3.51Z"/>
    <path class="st3" d="M520.07,186.63c0,1.29.87,1.81,1.99,1.81s2-.53,3.1-1.5v-3.15c-3.8.46-5.08,1.39-5.08,2.84Z"/>
    <path class="st3" d="M465.48,113.8c3.71,0,6.44-.97,8.21-2.91,1.77-1.94,2.65-4.73,2.65-8.36v-34.02c0-3.64-.88-6.43-2.62-8.36-1.75-1.94-4.5-2.91-8.24-2.91s-6.49.97-8.24,2.91c-1.75,1.94-2.62,4.73-2.62,8.36v34.02c0,3.64.88,6.43,2.65,8.36,1.77,1.94,4.5,2.91,8.21,2.91Z"/>
    <path class="st3" d="M391.62,139.42c-1.95,0-3.27,1.77-3.27,4.36s1.32,4.33,3.27,4.33,3.27-1.74,3.27-4.33-1.32-4.36-3.27-4.36Z"/>
  </g>
  <g>
    <path class="st2" d="M488.82,179.99h-3.6l-.44,3.82c-.25,2.22-.69,3.56-1.23,4.36h5.27v-8.18Z"/>
    <path class="st2" d="M392.41,139.63c-1.94,0-3.26,1.76-3.26,4.35s1.32,4.32,3.26,4.32,3.26-1.73,3.26-4.32-1.32-4.35-3.26-4.35Z"/>
    <path class="st2" d="M427.69,159.7c-.96,0-1.92.53-3.02,1.54v5.92c1.02.86,2,1.17,2.75,1.17,1.87,0,3.25-1.68,3.25-4.47,0-2.49-.85-4.16-2.98-4.16Z"/>
    <path class="st2" d="M487.1,166.6c0,1.28.87,1.81,1.98,1.81s1.99-.53,3.08-1.49v-3.14c-3.78.45-5.06,1.38-5.06,2.82Z"/>
    <path class="st2" d="M416.51,148.34c1.09,0,1.99-.53,3.08-1.49v-3.14c-3.78.45-5.06,1.38-5.06,2.82,0,1.28.87,1.81,1.98,1.81Z"/>
    <path class="st2" d="M436.45,166.6c0,1.28.87,1.81,1.98,1.81s1.99-.53,3.08-1.49v-3.14c-3.78.45-5.06,1.38-5.06,2.82Z"/>
    <path class="st2" d="M432.89,179.67c-1.59,0-3.01,1.27-3.24,3.49h6.02c0-2.26-1.02-3.49-2.78-3.49Z"/>
    <path class="st2" d="M520.39,186.66c0,1.28.87,1.81,1.98,1.81s1.99-.53,3.08-1.49v-3.14c-3.78.45-5.06,1.38-5.06,2.82Z"/>
    <path class="st2" d="M458.86,186.66c0,1.28.87,1.81,1.98,1.81s1.99-.53,3.08-1.49v-3.14c-3.78.45-5.06,1.38-5.06,2.82Z"/>
    <path class="st2" d="M465.99,113.8c3.71,0,6.44-.97,8.21-2.91,1.77-1.94,2.65-4.73,2.65-8.36v-34.02c0-3.64-.88-6.43-2.62-8.36-1.75-1.94-4.5-2.91-8.24-2.91s-6.49.97-8.24,2.91c-1.75,1.94-2.62,4.73-2.62,8.36v34.02c0,3.64.88,6.43,2.65,8.36,1.77,1.94,4.5,2.91,8.21,2.91Z"/>
    <path class="st2" d="M499.01,179.67c-1.59,0-3.01,1.27-3.24,3.49h6.02c0-2.26-1.02-3.49-2.78-3.49Z"/>
    <path class="st2" d="M469.76,5.47c-22.9,0-44.11,7.26-61.45,19.61h0s0,0,0,0c-2.76,1.96-5.42,4.05-7.97,6.27l-176.49,138.8.03.18c-2.72.81-4.77,4.25-4.77,8.38,0,4.73,2.68,8.56,5.99,8.56.67,0,1.31-.16,1.91-.45l.09.45,218.61,27.59h0c7.73,1.79,15.77,2.74,24.05,2.74,58.57,0,106.06-47.48,106.06-106.06S528.34,5.47,469.76,5.47ZM487.82,148.44c0,.85-.62,1.45-1.38,1.45s-1.38-.6-1.38-1.45.62-1.48,1.38-1.48,1.38.6,1.38,1.48ZM444.63,68.5c0-6.73,1.82-11.95,5.46-15.67,3.64-3.72,8.94-5.58,15.91-5.58s12.31,1.85,15.93,5.56,5.43,8.94,5.43,15.7v34.02c0,6.73-1.82,11.95-5.46,15.67-3.64,3.72-8.94,5.58-15.91,5.58s-12.31-1.87-15.93-5.61c-3.62-3.74-5.43-8.96-5.43-15.65v-34.02ZM482.08,148.44c0,.85-.62,1.45-1.38,1.45s-1.38-.6-1.38-1.45.62-1.48,1.38-1.48,1.38.6,1.38,1.48ZM476.34,148.44c0,.85-.62,1.45-1.38,1.45s-1.38-.6-1.38-1.45.62-1.48,1.38-1.48,1.38.6,1.38,1.48ZM474.07,175.28c1.54,0,2.02-1.11,2.07-2.43h1.57c-.09,1.8-1.03,3.55-3.64,3.55s-3.55-1.75-3.64-3.55h1.57c.05,1.32.53,2.43,2.07,2.43ZM468.44,140.74c-.42.7-1.08,1.74-1.49,2.42l-4.28,6.45h-1.77v-11.29h1.86v4.69c0,1.2-.1,2.72-.18,4.17h.08c.42-.7,1.08-1.73,1.5-2.42l4.27-6.45h1.77v11.29h-1.86v-4.69c0-1.2.1-2.71.19-4.17h-.09ZM438.02,138.31h1.91v4.16h2.12c2.69,0,4.49,1.06,4.49,3.53s-1.81,3.6-4.49,3.6h-4.03v-11.29ZM432.35,138.31h1.91v11.29h-1.91v-5.02h-5.43v5.02h-1.91v-11.29h1.91v4.58h5.43v-4.58ZM383.63,102.42l25.12-54.2h10.81l-24.5,53.58h20.85v-22.8h10.24v22.8h5.61v9.73h-5.61v11.53h-10.24v-11.53h-32.27v-9.11ZM417.26,139.61c-1.31,0-2.48.62-3.37,1.21l-.75-1.31c1.04-.68,2.62-1.47,4.43-1.47,2.76,0,3.92,1.83,3.92,4.64v6.93h-1.58l-.16-1.35h-.06c-1.08.9-2.33,1.63-3.73,1.63-1.89,0-3.31-1.17-3.31-3.21,0-2.46,2.12-3.69,6.94-4.21,0-1.45-.49-2.85-2.33-2.85ZM392.41,149.88c-2.77,0-5.23-2.17-5.23-5.91s2.46-5.94,5.23-5.94,5.23,2.17,5.23,5.94-2.46,5.91-5.23,5.91ZM400.56,138.31h9.03v11.29h-1.91v-9.73h-5.21v9.73h-1.91v-11.29ZM406.27,169.94c-3,0-5.3-2.17-5.3-5.91s2.55-5.94,5.43-5.94c1.48,0,2.51.61,3.3,1.33l-.98,1.26c-.66-.59-1.35-1-2.24-1-2.05,0-3.54,1.76-3.54,4.35s1.42,4.32,3.49,4.32c1.03,0,1.95-.5,2.65-1.13l.83,1.28c-1.01.9-2.3,1.44-3.65,1.44ZM410.82,159.93v-1.56h9.47v1.56h-3.78v9.73h-1.91v-9.73h-3.78ZM424.86,189.72h-1.91v-5.02h-5.43v5.02h-1.91v-11.29h1.91v4.58h5.43v-4.58h1.91v11.29ZM424.62,168.63l.05,1.97v3.82h-1.91v-16.06h1.58l.16,1.3h.06c1.02-.85,2.29-1.58,3.6-1.58,2.92,0,4.48,2.26,4.48,5.75,0,3.85-2.31,6.1-4.89,6.1-1.03,0-2.09-.48-3.13-1.31ZM437.27,184.53h-7.6c.14,2.39,1.6,3.94,3.75,3.94,1.08,0,1.97-.35,2.81-.9l.68,1.25c-.99.65-2.19,1.17-3.73,1.17-3.01,0-5.41-2.2-5.41-5.91s2.48-5.94,5.08-5.94c2.88,0,4.51,2.07,4.51,5.3,0,.4-.03.81-.09,1.09ZM443.43,169.66h-1.58l-.16-1.35h-.06c-1.08.9-2.33,1.63-3.73,1.63-1.89,0-3.31-1.17-3.31-3.21,0-2.46,2.12-3.69,6.94-4.21,0-1.45-.49-2.85-2.33-2.85-1.31,0-2.48.62-3.37,1.21l-.75-1.31c1.04-.68,2.62-1.47,4.43-1.47,2.76,0,3.92,1.83,3.92,4.64v6.93ZM453.93,189.72h-1.91v-5.02h-5.43v5.02h-1.91v-11.29h1.91v4.58h5.43v-4.58h1.91v11.29ZM456.19,169.66h-1.91v-5.02h-5.43v5.02h-1.91v-11.29h1.91v4.58h5.43v-4.58h1.91v11.29ZM453.5,144.52h-2.22v5.09h-1.91v-11.29h1.91v4.65h2.18l1.11-2.51c.87-1.98,1.74-2.42,2.96-2.42.24,0,.49.05.67.13l-.34,1.79c-.14-.05-.21-.06-.38-.06-.59,0-1.06.21-1.63,1.55l-.95,2.22,3.83,5.94h-2.11l-3.14-5.09ZM465.84,189.72h-1.58l-.16-1.35h-.06c-1.08.9-2.33,1.63-3.73,1.63-1.89,0-3.31-1.17-3.31-3.21,0-2.46,2.12-3.69,6.94-4.21,0-1.45-.49-2.85-2.33-2.85-1.31,0-2.48.62-3.37,1.21l-.75-1.31c1.04-.68,2.62-1.47,4.43-1.47,2.76,0,3.92,1.83,3.92,4.64v6.93ZM469.25,169.66h-1.86v-4.69c0-1.2.1-2.71.19-4.17h-.09c-.42.7-1.08,1.74-1.49,2.42l-4.28,6.45h-1.77v-11.29h1.86v4.69c0,1.2-.1,2.72-.18,4.17h.08c.42-.7,1.08-1.73,1.5-2.42l4.27-6.45h1.77v11.29ZM478.66,189.72h-1.86v-4.7c0-1.2.1-2.71.19-4.17h-.09c-.42.7-1.08,1.74-1.49,2.42l-4.28,6.45h-1.77v-11.29h1.86v4.69c0,1.2-.1,2.72-.18,4.17h.08c.42-.7,1.08-1.73,1.5-2.42l4.27-6.45h1.77v11.29ZM473.02,169.66v-11.29h1.91v9.73h5.06v-9.73h1.91v9.73h1.64v1.21l-.2,4.34h-1.65v-4h-8.68ZM492.37,189.37l-.2,4.34h-1.65v-4h-7.71v4h-1.65l-.2-4.34v-1.21h.55c.63-.34,1.13-1.09,1.58-4.73l.6-5h7.03v9.73h1.64v1.21ZM492.34,168.31h-.06c-1.08.9-2.33,1.63-3.73,1.63-1.89,0-3.31-1.17-3.31-3.21,0-2.46,2.12-3.69,6.94-4.21,0-1.45-.49-2.85-2.33-2.85-1.31,0-2.48.62-3.37,1.21l-.75-1.31c1.04-.68,2.62-1.47,4.43-1.47,2.76,0,3.92,1.83,3.92,4.64v6.93h-1.58l-.16-1.35ZM503.39,184.53h-7.6c.14,2.39,1.6,3.94,3.75,3.94,1.08,0,1.97-.35,2.81-.9l.68,1.25c-.99.65-2.19,1.17-3.73,1.17-3.01,0-5.41-2.2-5.41-5.91s2.48-5.94,5.08-5.94c2.88,0,4.51,2.07,4.51,5.3,0,.4-.03.81-.09,1.09ZM515.46,189.72h-1.91v-5.02h-5.43v5.02h-1.91v-11.29h1.91v4.58h5.43v-4.58h1.91v11.29ZM527.36,189.72h-1.58l-.16-1.35h-.06c-1.08.9-2.33,1.63-3.73,1.63-1.89,0-3.31-1.17-3.31-3.21,0-2.46,2.12-3.69,6.94-4.21,0-1.45-.49-2.85-2.33-2.85-1.31,0-2.48.62-3.37,1.21l-.75-1.31c1.04-.68,2.62-1.47,4.43-1.47,2.76,0,3.92,1.83,3.92,4.64v6.93ZM544.28,111.53v11.53h-10.24v-11.53h-32.27v-9.11l25.12-54.2h10.81l-24.5,53.58h20.85v-22.8h10.24v22.8h5.61v9.73h-5.61Z"/>
    <path class="st2" d="M444.67,146c0-1.42-.92-2.04-2.82-2.04h-1.92v4.12h1.92c1.9,0,2.82-.65,2.82-2.08Z"/>
  </g>
</svg>